<?xml version="1.0" encoding="UTF-8"?>
<!DOCTYPE svg PUBLIC "-//W3C//DTD SVG 1.1//EN" "http://www.w3.org/Graphics/SVG/1.1/DTD/svg11.dtd">
<!-- Creator: CorelDRAW 2021 (64-Bit) -->
<svg xmlns="http://www.w3.org/2000/svg" xml:space="preserve" width="46mm" height="60mm" version="1.1" style="shape-rendering:geometricPrecision; text-rendering:geometricPrecision; image-rendering:optimizeQuality; fill-rule:evenodd; clip-rule:evenodd"
viewBox="0 0 4600 6000"
 xmlns:xlink="http://www.w3.org/1999/xlink"
 xmlns:xodm="http://www.corel.com/coreldraw/odm/2003">
 <defs>
  <style type="text/css">
   <![CDATA[
    .fil0 {fill:#0C0C0C}
    .fil3 {fill:#151616}
    .fil4 {fill:#E3E3E3}
    .fil2 {fill:#FEFEFE}
    .fil1 {fill:#FFC872}
   ]]>
  </style>
 </defs>
 <g id="Capa_x0020_1">
  <metadata id="CorelCorpID_0Corel-Layer"/>
  <g id="_2260286265600">
   <path class="fil0" d="M387.27 3350.59c211.54,135.48 328.45,281.11 526.49,433.52l86.84 -63.16c6.29,-5.76 17.34,-16.86 23.09,-22.7 28.42,-28.91 36.48,-55.33 79.27,-92.76l269.81 2225.63 2510.82 -634.73 -233.38 -1850.56c145,91.36 50.29,77.37 232.39,95.56 69.04,-95.75 411,-424.86 577.35,-670.56 -141.08,-251.69 -556.09,-663.9 -762.63,-869.18 -215.54,-214.23 -590.66,-472.9 -1019.51,-557.3 -8.43,266.24 195.89,533.97 -211.17,474.68l22.02 -390.62c-131.05,-59.85 -32.57,38.3 -158.29,-62.66 -32.34,-300.55 -83.81,-883.13 -412.36,-999.87 70.44,163.95 177.13,270.77 239.32,489.86 54.57,192.24 78.27,377.71 99.49,587.98l-289.83 -34.03c-92.95,66.73 -190.86,-92.43 -44.81,258.12 42.54,102.13 78.66,41.37 2.73,192.09 -336,163.54 -233.11,-265.31 -283.11,-575.08l-149.25 -48.19c-19.88,-198.81 -33.3,-407.27 20.06,-603.34 68.72,-252.48 140.19,-168.51 246.28,-340.55 -411.3,71.63 -355.33,567.64 -353.13,991.83 -173.89,120.5 -323.72,133.27 -491.15,288.65 -277.29,257.35 -730.38,1141.44 -778.49,1500.85 121.45,88.25 227.91,137.59 251.15,276.52z"/>
   <path class="fil1" d="M1372.77 5831.12l-269.81 -2225.63c-42.79,37.43 -50.85,63.85 -79.27,92.76 -5.75,5.84 -16.8,16.94 -23.09,22.7l-86.84 63.16c-198.04,-152.41 -314.95,-298.04 -526.49,-433.52 246.93,424.35 395.05,260.82 337.05,907.82 -30.24,337.48 -86.13,827.47 -76.4,1158.44l724.85 414.27z"/>
   <path class="fil2" d="M1784.18 1284.82c12.76,5.27 32.06,-2.75 38.45,15.32 6.59,18.61 29.74,12.58 38.32,18.75 8.92,6.38 26.83,17.51 36.6,24.96l69.44 65.84 289.83 34.03c-21.22,-210.27 -44.92,-395.74 -99.49,-587.98 -62.19,-219.09 -168.88,-325.91 -239.32,-489.86 -29.4,20.87 -74.96,14.26 -121.51,168.05 -23.29,76.97 -35.41,188.96 -40.43,269.86 -9.9,159.48 -0.19,329.58 28.11,481.03z"/>
   <path class="fil3" d="M1663.57 1291.31l125.71 445.36c55.87,-157.08 7.71,-269.05 -5.1,-451.85 -28.3,-151.45 -38.01,-321.55 -28.11,-481.03 5.02,-80.9 17.14,-192.89 40.43,-269.86 46.55,-153.79 92.11,-147.18 121.51,-168.05 218.97,-236.77 432.65,155.67 507.75,410.28 87.64,297.15 77.71,758.11 164.98,971.63 119.6,-173.88 -10.78,-722.71 -76.33,-961.73 -99.03,-361.08 -202.45,-603.61 -612.31,-553.58 -288.24,154.8 -208.07,863.71 -238.53,1058.83z"/>
   <path class="fil4" d="M1641.8 1284.82c50,309.77 -52.89,738.62 283.11,575.08 75.93,-150.72 39.81,-89.96 -2.73,-192.09 -146.05,-350.55 -48.14,-191.39 44.81,-258.12l-69.44 -65.84c-9.77,-7.45 -27.68,-18.58 -36.6,-24.96 -8.58,-6.17 -31.73,-0.14 -38.32,-18.75 -6.39,-18.07 -25.69,-10.05 -38.45,-15.32 12.81,182.8 60.97,294.77 5.1,451.85l-125.71 -445.36 -21.77 -6.49z"/>
  </g>
 </g>
</svg>
